<?xml version="1.0" encoding="utf-8"?>
<!-- Generator: Adobe Illustrator 21.0.0, SVG Export Plug-In . SVG Version: 6.00 Build 0)  -->
<svg version="1.1" id="Layer_1" xmlns="http://www.w3.org/2000/svg" xmlns:xlink="http://www.w3.org/1999/xlink" x="0px" y="0px"
	 viewBox="0 0 1023.9 1024" style="enable-background:new 0 0 1023.9 1024;" xml:space="preserve">
<style type="text/css">
	.st0{fill:#FFFFFF;}
</style>
<g>
	<path class="st0" d="M136,1024c-10.1-3.7-13.5-12.1-15-21.8c-2.7-18.2,0.1-36.2,3.5-54.1c11.3-58.6,31.2-114.5,51.8-170.3
		c6.2-16.7,13.4-33,19.3-49.8c7.2-20.4,21.6-33.5,40.7-42.2c39.6-18.2,79.2-36.4,118.8-54.7c3-1.4,5.8-3.2,8.3-5.3
		c16.5-13.8,32.9-27.7,49.3-41.5c1-0.8,2-1.6,3.9-3.1c5.1,5.4,10,10.9,15.2,16c23.8,23.8,47.7,47.5,71.6,71.2
		c2.3,2.3,3.2,4.3,2.7,7.8c-8.1,53-16,106-23.9,159c-4.7,31.6-9.6,63.2-14,94.9c-0.4,2.8,0.6,6.3,2.3,8.6
		c12.1,17,24.4,33.7,36.7,50.5c4,5.5,5.5,5.4,9.6-0.1c12.3-16.8,24.7-33.5,36.7-50.5c1.6-2.3,2.6-5.9,2.2-8.7
		c-5.6-38.7-11.4-77.4-17.2-116.1c-6.5-43.5-12.7-87-19.8-130.4c-1.5-9,0.9-14.5,7.2-20.6c26-25.2,51.4-50.9,77-76.4
		c1.5-1.5,2.8-3.3,4.5-5.4c4.2,3.5,7.7,6.4,11.2,9.3c14,11.8,28,23.7,42.1,35.4c2.4,2,5.1,3.7,7.9,5.1
		c39.4,18.2,78.9,36.3,118.3,54.4c19.5,9,33.8,22.3,41.8,43.1c23.8,61.5,47.2,123,63.6,187c6.3,24.7,11.9,49.6,11.5,75.3
		c-0.1,5.3-0.9,10.6-1.9,15.8c-1.6,8.2-5.9,14.4-14.1,17.3C637.3,1024,386.6,1024,136,1024z"/>
	<path class="st0" d="M516,0c25.6,9.3,51.2,18.7,76.8,28c78.4,28.3,156.7,56.7,235.1,85c1.6,0.6,3.1,1.1,4.7,1.8
		c7.6,3.4,11.7,9.2,11.7,17.6c0,8.4-4,15.3-11.9,17.2c-11,2.6-12.7,8.7-12.3,18.7c0.8,19.6,0.2,39.3,0.2,59c0,1.8,0,3.6,0,5.6
		c1.8,0.1,3.1,0.3,4.4,0.2c4.9-0.2,7.4,2.4,8,7.1c2.1,18.2,4.3,36.4,6.3,54.6c0.6,5.9-1.7,8.5-7.6,8.5c-16.2,0.1-32.3,0.1-48.5,0
		c-6,0-8.4-2.8-7.7-8.9c2-17.5,4-35.1,6.1-52.6c0.8-7.2,1.6-7.6,12.3-9c0-22.6,0-45.2,0-68.7c-28.1,10.2-55.8,20.2-83.9,30.3
		c1.8,7.8,3.7,15.4,5.2,23c5.2,26.1,6,52.6,4.8,79.1c-1.9,41.6-9,82.3-23.6,121.5c-17.6,47.2-43.5,88.7-82.7,121
		c-24.5,20-51.9,34-83.5,39.1c-31.4,5-61-0.8-89.2-14.8c-43-21.3-73.9-55.1-97.4-96.1c-24.2-42.2-37.5-87.9-43.4-136
		c-3.5-28.9-4.9-57.8-1.8-86.8c1.9-17.5,5.5-34.7,8.5-52.9c-1.9-0.7-5.1-2-8.3-3.2c-34.6-12.5-69.2-24.9-103.7-37.4
		c-9.8-3.5-14.7-9.7-14.8-18.5c-0.1-9,4.8-15.2,14.9-18.9C298.7,76,402.8,38.4,506.8,0.8c0.4-0.2,0.8-0.6,1.2-0.8
		C510.6,0,513.3,0,516,0z M669.4,326.5c-0.3-3.3-0.5-8.9-1.5-14.5c-2.8-15.4-12.4-25.2-26.9-26.7c-6.2-0.7-12.7-0.5-18.9,0.4
		c-17.9,2.5-34.8,8.8-51.4,15.8c-22.2,9.5-44,19.7-66.3,28.9c-8.8,3.6-18.3,6.3-27.7,7.7c-9.8,1.4-13.2-4.6-8.7-13.3
		c3.4-6.5,7.2-12.8,10.4-19.3c6.9-14.1,4-27-6.3-38.2c-3.7-4-8.3-7.3-13-9.9c-16.2-8.7-33.6-9.9-51.5-7.3
		c-40.1,5.8-64.9,37.1-60.3,76.7c4.5,38.7,14.9,75.7,32.6,110.5c16,31.3,36.3,59,66.4,78.3c23.4,15,48.9,21.8,76.6,17.5
		c20.2-3.2,37.8-12.6,53.7-25.1c30.2-23.7,51.9-54.2,68.5-88.5C658.9,390.8,668.3,360.9,669.4,326.5z"/>
</g>
</svg>
